<svg width="20" height="20" viewBox="0 0 20 20" fill="none" xmlns="http://www.w3.org/2000/svg">
<path d="M6.92357 19.0001C7.61608 19.0001 8.17747 18.4152 8.17747 17.6937C8.17747 16.9721 7.61608 16.3872 6.92357 16.3872C6.23107 16.3872 5.66968 16.9721 5.66968 17.6937C5.66968 18.4152 6.23107 19.0001 6.92357 19.0001Z" fill="#15325A" stroke="#15325A" stroke-width="0.5"/>
<path d="M14.5417 19.0001C15.2342 19.0001 15.7956 18.4152 15.7956 17.6937C15.7956 16.9721 15.2342 16.3872 14.5417 16.3872C13.8492 16.3872 13.2878 16.9721 13.2878 17.6937C13.2878 18.4152 13.8492 19.0001 14.5417 19.0001Z" fill="#15325A" stroke="#15325A" stroke-width="0.5"/>
<path d="M12.0729 4.48356C12.0476 4.29113 12.0345 4.09715 12.0339 3.90291C12.0345 3.70867 12.0476 3.51469 12.0729 3.32227H5.89819L6.26043 4.48356H12.0729Z" fill="#15325A" stroke="#15325A" stroke-width="0.5"/>
<path d="M16.2136 8.25794H15.9795L15.2829 11.4515H6.92358L4.37677 3.04955C4.34923 2.9604 4.30139 2.87951 4.23734 2.81379C4.1733 2.74807 4.09494 2.69947 4.00896 2.67213L1.72409 1.94052C1.65383 1.91803 1.58001 1.91017 1.50684 1.9174C1.43367 1.92463 1.36258 1.94681 1.29764 1.98266C1.16647 2.05508 1.06829 2.17881 1.02469 2.32665C0.981089 2.47449 0.995639 2.63431 1.06514 2.77097C1.13464 2.90763 1.2534 3.00993 1.39529 3.05536L3.39595 3.69407L5.9539 12.1134L5.03995 12.8915L4.9675 12.967C4.74143 13.2384 4.61329 13.5835 4.60515 13.9428C4.59701 14.3021 4.70939 14.6531 4.92292 14.9354C5.07481 15.1278 5.26782 15.2806 5.48652 15.3814C5.70522 15.4822 5.94353 15.5283 6.18238 15.516H15.4835C15.6313 15.516 15.7731 15.4548 15.8776 15.3459C15.9821 15.237 16.0408 15.0894 16.0408 14.9354C16.0408 14.7814 15.9821 14.6337 15.8776 14.5248C15.7731 14.4159 15.6313 14.3547 15.4835 14.3547H6.09322C6.02905 14.3524 5.96652 14.3329 5.91169 14.2981C5.85685 14.2633 5.81156 14.2144 5.78019 14.156C5.74881 14.0976 5.73242 14.0318 5.73258 13.9649C5.73275 13.898 5.74947 13.8323 5.78114 13.7741L7.1242 12.6128H15.7287C15.8575 12.6161 15.9835 12.5727 16.0851 12.4901C16.1867 12.4076 16.2577 12.2909 16.286 12.1599L17.1609 8.14762C16.8502 8.22187 16.5324 8.25888 16.2136 8.25794Z" fill="#15325A" stroke="#15325A" stroke-width="0.5"/>
<path d="M16.2137 6.80645C17.7526 6.80645 19.0001 5.50663 19.0001 3.90323C19.0001 2.29982 17.7526 1 16.2137 1C14.6748 1 13.4272 2.29982 13.4272 3.90323C13.4272 5.50663 14.6748 6.80645 16.2137 6.80645Z" fill="#15325A" stroke="#15325A" stroke-width="0.5"/>
</svg>
