<svg width="21" height="20" viewBox="0 0 21 20" fill="none" xmlns="http://www.w3.org/2000/svg">
<path d="M13.0433 6.27925L13.1228 6.44805L13.3073 6.47612L19.3017 7.38841C19.3019 7.38843 19.302 7.38846 19.3022 7.38848C19.5152 7.42191 19.6841 7.63651 19.6468 7.88918L19.6463 7.89289C19.6328 7.99192 19.5885 8.08092 19.5232 8.14813C19.523 8.14824 19.5229 8.14835 19.5228 8.14846L15.1856 12.5766L15.0615 12.7032L15.0902 12.8781L16.1151 19.1319L16.1151 19.1321C16.157 19.3868 15.9919 19.6054 15.7819 19.6433L15.7814 19.6434C15.6974 19.6587 15.6099 19.6445 15.5352 19.6029L15.5336 19.602L10.1708 16.6495L10.002 16.5565L9.8332 16.6495L4.47044 19.602L4.46989 19.6023C4.40417 19.6386 4.33137 19.6543 4.25938 19.649C4.18736 19.6436 4.11667 19.6171 4.05549 19.5706C3.99415 19.524 3.94451 19.4586 3.91426 19.3806C3.88398 19.3025 3.87499 19.2163 3.88887 19.1323L3.88895 19.1319L4.9138 12.8781L4.94246 12.7032L4.81844 12.5766L0.48054 8.14781L0.480518 8.14779C0.401509 8.06714 0.353539 7.95362 0.351992 7.83128C0.350447 7.70915 0.395377 7.59429 0.472316 7.51123C0.53646 7.44289 0.616624 7.40123 0.700252 7.38872L0.701129 7.38859L6.69674 6.47612L6.8812 6.44805L6.96071 6.27925L9.64012 0.590976C9.64024 0.590732 9.64035 0.590487 9.64047 0.590243C9.74677 0.368562 9.98886 0.295474 10.1766 0.392524L10.177 0.392737C10.2551 0.432964 10.3216 0.500949 10.363 0.589019L10.3631 0.589316L13.0433 6.27925ZM4.5684 12.8215L3.54355 19.0753L0.216332 7.27254C0.0764463 7.4231 -0.000637121 7.62566 0.00201959 7.8357C0.0046763 8.04575 0.0868557 8.24609 0.2305 8.39272L4.5684 12.8215Z" fill="#FFDF00" stroke="#15325A" stroke-width="0.7"/>
</svg>
